HIERARCHY
ROOT Hip
{
	OFFSET	0.0000	0.0000	0.0000
	CHANNELS 6 Xposition Yposition Zposition Xrotation Yrotation Zrotation
	JOINT LowerSpine
	{
		OFFSET	0.0000	9.4421	-5.1095
		CHANNELS 3 Xrotation Yrotation Zrotation
		JOINT MiddleSpine
		{
			OFFSET	0.0000	8.6167	0.4501
			CHANNELS 3 Xrotation Yrotation Zrotation
			JOINT Chest
			{
				OFFSET	0.0000	10.6621	-2.3733
				CHANNELS 3 Xrotation Yrotation Zrotation
				JOINT Neck
				{
					OFFSET	0.0000	24.0266	-0.4997
					CHANNELS 3 Xrotation Yrotation Zrotation
					JOINT Head
					{
						OFFSET	0.0000	13.5681	3.6905
						CHANNELS 3 Xrotation Yrotation Zrotation
						End Site
						{
							OFFSET	0.0001	18.9582	0.5659
						}
					}
				}
				JOINT LClavicle
				{
					OFFSET	2.4257	23.1869	7.9440
					CHANNELS 3 Xrotation Yrotation Zrotation
					JOINT LShoulder
					{
						OFFSET	14.1712	3.3259	-5.3815
						CHANNELS 3 Xrotation Yrotation Zrotation
						JOINT LForearm
						{
							OFFSET	30.1025	-0.1069	-0.2608
							CHANNELS 3 Xrotation Yrotation Zrotation
							JOINT LHand
							{
								OFFSET	25.1118	0.0729	-0.1504
								CHANNELS 3 Xrotation Yrotation Zrotation
								JOINT LFinger1
								{
									OFFSET	9.7326	0.8511	2.7032
									CHANNELS 3 Xrotation Yrotation Zrotation
									JOINT LFinger11
									{
										OFFSET	3.6405	-0.8877	0.6415
										CHANNELS 3 Xrotation Yrotation Zrotation
										JOINT LFinger12
										{
											OFFSET	2.4853	-0.6063	0.4381
											CHANNELS 3 Xrotation Yrotation Zrotation
											End Site
											{
												OFFSET	1.7685	-0.5279	0.2869
											}
										}
									}
								}
								JOINT LFinger2
								{
									OFFSET	9.8779	0.9829	0.2354
									CHANNELS 3 Xrotation Yrotation Zrotation
									JOINT LFinger21
									{
										OFFSET	4.5013	0.0125	-0.0266
										CHANNELS 3 Xrotation Yrotation Zrotation
										JOINT LFinger22
										{
											OFFSET	2.4949	0.0076	-0.0152
											CHANNELS 3 Xrotation Yrotation Zrotation
											End Site
											{
												OFFSET	2.2410	-0.1582	0.0030
											}
										}
									}
								}
								JOINT LFinger3
								{
									OFFSET	9.3613	0.6559	-2.2147
									CHANNELS 3 Xrotation Yrotation Zrotation
									JOINT LFinger31
									{
										OFFSET	4.0844	-0.2068	-0.2557
										CHANNELS 3 Xrotation Yrotation Zrotation
										JOINT LFinger32
										{
											OFFSET	2.3274	-0.1171	-0.1463
											CHANNELS 3 Xrotation Yrotation Zrotation
											End Site
											{
												OFFSET	2.0579	-0.2530	-0.0973
											}
										}
									}
								}
								JOINT LFinger4
								{
									OFFSET	8.6869	-0.6602	-3.8249
									CHANNELS 3 Xrotation Yrotation Zrotation
									JOINT LFinger41
									{
										OFFSET	2.5123	-0.5239	-0.6935
										CHANNELS 3 Xrotation Yrotation Zrotation
										JOINT LFinger42
										{
											OFFSET	1.8423	-0.3837	-0.5089
											CHANNELS 3 Xrotation Yrotation Zrotation
											End Site
											{
												OFFSET	1.6352	-0.4493	-0.3751
											}
										}
									}
								}
								JOINT LFinger0
								{
									OFFSET	2.0132	-1.5239	1.5262
									CHANNELS 3 Xrotation Yrotation Zrotation
									JOINT LFinger01
									{
										OFFSET	3.7485	-1.2312	2.8262
										CHANNELS 3 Xrotation Yrotation Zrotation
										JOINT LFinger02
										{
											OFFSET	2.4684	-0.8832	1.7784
											CHANNELS 3 Xrotation Yrotation Zrotation
											End Site
											{
												OFFSET	1.8151	-0.6248	1.2429
											}
										}
									}
								}
							}
						}
					}
				}
				JOINT RClavicle
				{
					OFFSET	-2.4257	23.1869	7.9440
					CHANNELS 3 Xrotation Yrotation Zrotation
					JOINT RShoulder
					{
						OFFSET	-14.1737	3.3264	-5.3824
						CHANNELS 3 Xrotation Yrotation Zrotation
						JOINT RForearm
						{
							OFFSET	-30.1025	-0.1069	-0.2608
							CHANNELS 3 Xrotation Yrotation Zrotation
							JOINT RHand
							{
								OFFSET	-25.1118	0.0729	-0.1504
								CHANNELS 3 Xrotation Yrotation Zrotation
								JOINT RFinger1
								{
									OFFSET	-9.7326	0.8512	2.7032
									CHANNELS 3 Xrotation Yrotation Zrotation
									JOINT RFinger11
									{
										OFFSET	-3.6405	-0.8877	0.6415
										CHANNELS 3 Xrotation Yrotation Zrotation
										JOINT RFinger12
										{
											OFFSET	-2.4853	-0.6063	0.4381
											CHANNELS 3 Xrotation Yrotation Zrotation
											End Site
											{
												OFFSET	-1.7685	-0.5279	0.2869
											}
										}
									}
								}
								JOINT RFinger2
								{
									OFFSET	-9.8779	0.9830	0.2354
									CHANNELS 3 Xrotation Yrotation Zrotation
									JOINT RFinger21
									{
										OFFSET	-4.5013	0.0126	-0.0266
										CHANNELS 3 Xrotation Yrotation Zrotation
										JOINT RFinger22
										{
											OFFSET	-2.4949	0.0076	-0.0152
											CHANNELS 3 Xrotation Yrotation Zrotation
											End Site
											{
												OFFSET	-2.2410	-0.1582	0.0030
											}
										}
									}
								}
								JOINT RFinger3
								{
									OFFSET	-9.3613	0.6559	-2.2147
									CHANNELS 3 Xrotation Yrotation Zrotation
									JOINT RFinger31
									{
										OFFSET	-4.0844	-0.2068	-0.2557
										CHANNELS 3 Xrotation Yrotation Zrotation
										JOINT RFinger32
										{
											OFFSET	-2.3274	-0.1171	-0.1463
											CHANNELS 3 Xrotation Yrotation Zrotation
											End Site
											{
												OFFSET	-2.0579	-0.2530	-0.0973
											}
										}
									}
								}
								JOINT RFinger4
								{
									OFFSET	-8.6869	-0.6602	-3.8249
									CHANNELS 3 Xrotation Yrotation Zrotation
									JOINT RFinger41
									{
										OFFSET	-2.5123	-0.5239	-0.6935
										CHANNELS 3 Xrotation Yrotation Zrotation
										JOINT RFinger42
										{
											OFFSET	-1.8423	-0.3837	-0.5089
											CHANNELS 3 Xrotation Yrotation Zrotation
											End Site
											{
												OFFSET	-1.6352	-0.4493	-0.3751
											}
										}
									}
								}
								JOINT RFinger0
								{
									OFFSET	-2.0132	-1.5239	1.5262
									CHANNELS 3 Xrotation Yrotation Zrotation
									JOINT RFinger01
									{
										OFFSET	-3.7485	-1.2312	2.8262
										CHANNELS 3 Xrotation Yrotation Zrotation
										JOINT RFinger02
										{
											OFFSET	-2.4684	-0.8832	1.7784
											CHANNELS 3 Xrotation Yrotation Zrotation
											End Site
											{
												OFFSET	-1.8151	-0.6248	1.2429
											}
										}
									}
								}
							}
						}
					}
				}
			}
		}
	}
	JOINT RThigh
	{
		OFFSET	-10.1007	4.2681	-0.8326
		CHANNELS 3 Xrotation Yrotation Zrotation
		JOINT RShin
		{
			OFFSET	-0.8082	-43.9335	0.0000
			CHANNELS 3 Xrotation Yrotation Zrotation
			JOINT RFoot
			{
				OFFSET	0.0000	-43.1400	0.0000
				CHANNELS 3 Xrotation Yrotation Zrotation
				JOINT RToe
				{
					OFFSET	0.0000	-4.7415	9.9150
					CHANNELS 3 Xrotation Yrotation Zrotation
					End Site
					{
						OFFSET	0.0000	0.0000	6.6516
					}
				}
			}
		}
	}
	JOINT LThigh
	{
		OFFSET	10.1006	4.2684	-0.8326
		CHANNELS 3 Xrotation Yrotation Zrotation
		JOINT LShin
		{
			OFFSET	0.8083	-43.9338	0.0000
			CHANNELS 3 Xrotation Yrotation Zrotation
			JOINT LFoot
			{
				OFFSET	0.0000	-43.1400	0.0000
				CHANNELS 3 Xrotation Yrotation Zrotation
				JOINT LToe
				{
					OFFSET	0.0000	-4.7415	9.9151
					CHANNELS 3 Xrotation Yrotation Zrotation
					End Site
					{
						OFFSET	0.0000	0.0000	6.6516
					}
				}
			}
		}
	}
}
MOTION
Frames:	6
Frame Time: 0.0333333000
	-20.5062	32.8287	38.3119	54.200980	-47.612680	50.007930	0.000000	0.000000	0.000000	-1.505932	-5.316977	0.710314	-4.877417	-17.781280	1.858010	0.000000	0.000000	0.000000	0.000000	0.000000	0.000000	0.000000	0.000000	1.805193	-19.547250	-38.570760	-8.395372	-4.592024	7.944257	7.265934	0.000000	0.000000	0.000000	0.000000	0.000000	0.000000	0.000000	0.000000	0.000000	0.000000	0.000000	0.000000	0.000000	0.000000	0.000000	0.000000	0.000000	0.000000	0.000000	0.000000	0.000000	0.000000	0.000000	0.000000	0.000000	0.000000	0.000000	0.000000	0.000000	0.000000	0.000000	0.000000	0.000000	0.000000	0.000000	0.000000	0.000000	0.000000	0.000000	0.000000	0.000000	0.000000	0.000000	0.000000	0.000000	0.000000	0.000000	0.000000	0.000000	0.000000	4.127926	1.931280	-0.657688	16.413600	-1.893141	-0.791612	-2.214580	0.000000	0.000000	0.000000	0.000000	0.000000	0.000000	0.000000	0.000000	0.000000	0.000000	0.000000	0.000000	0.000000	0.000000	0.000000	0.000000	0.000000	0.000000	0.000000	0.000000	0.000000	0.000000	0.000000	0.000000	0.000000	0.000000	0.000000	0.000000	0.000000	0.000000	0.000000	0.000000	0.000000	0.000000	0.000000	0.000000	0.000000	0.000000	0.000000	0.000000	0.000000	0.000000	0.000000	0.000000	0.000000	0.000000	0.000000	0.000000	-62.865870	27.104310	-63.989070	138.094500	13.945180	14.640090	-37.322650	23.330610	22.718940	-15.140620	0.000000	0.000000	-128.945400	7.491775	-6.988818	132.080800	2.623216	0.276110	-35.881500	10.581970	10.043510	0.000000	0.000000	0.000000
	-20.4185	32.8630	38.2916	54.734420	-47.668690	50.729850	0.000000	0.000000	0.000000	-1.642719	-5.206536	0.622536	-5.377347	-17.408210	1.518393	0.000000	0.000000	0.000000	0.000000	0.000000	0.000000	0.000000	0.000000	1.680107	-19.341940	-38.755550	-8.508975	-4.601180	7.995787	7.253166	0.000000	0.000000	0.000000	0.000000	0.000000	0.000000	0.000000	0.000000	0.000000	0.000000	0.000000	0.000000	0.000000	0.000000	0.000000	0.000000	0.000000	0.000000	0.000000	0.000000	0.000000	0.000000	0.000000	0.000000	0.000000	0.000000	0.000000	0.000000	0.000000	0.000000	0.000000	0.000000	0.000000	0.000000	0.000000	0.000000	0.000000	0.000000	0.000000	0.000000	0.000000	0.000000	0.000000	0.000000	0.000000	0.000000	0.000000	0.000000	0.000000	0.000000	4.142536	2.061857	-0.546857	16.459960	-2.569550	-0.453439	-2.963306	0.000000	0.000000	0.000000	0.000000	0.000000	0.000000	0.000000	0.000000	0.000000	0.000000	0.000000	0.000000	0.000000	0.000000	0.000000	0.000000	0.000000	0.000000	0.000000	0.000000	0.000000	0.000000	0.000000	0.000000	0.000000	0.000000	0.000000	0.000000	0.000000	0.000000	0.000000	0.000000	0.000000	0.000000	0.000000	0.000000	0.000000	0.000000	0.000000	0.000000	0.000000	0.000000	0.000000	0.000000	0.000000	0.000000	0.000000	0.000000	-63.282540	27.670600	-63.710670	138.177500	13.610100	14.326650	-38.293410	24.482940	24.238900	-13.996870	0.000000	0.000000	-129.371500	7.252149	-6.684297	131.931600	2.414342	0.055124	-35.400470	11.029300	10.382270	0.000000	0.000000	0.000000
	-20.1417	32.9557	38.3168	55.540790	-47.567580	51.674090	0.000000	0.000000	0.000000	-1.740205	-5.023028	0.575292	-5.725591	-16.793880	1.341754	0.000000	0.000000	0.000000	0.000000	0.000000	0.000000	0.000000	0.000000	1.653216	-19.084440	-39.040860	-8.450696	-4.380455	7.783120	6.913001	0.000000	0.000000	0.000000	0.000000	0.000000	0.000000	0.000000	0.000000	0.000000	0.000000	0.000000	0.000000	0.000000	0.000000	0.000000	0.000000	0.000000	0.000000	0.000000	0.000000	0.000000	0.000000	0.000000	0.000000	0.000000	0.000000	0.000000	0.000000	0.000000	0.000000	0.000000	0.000000	0.000000	0.000000	0.000000	0.000000	0.000000	0.000000	0.000000	0.000000	0.000000	0.000000	0.000000	0.000000	0.000000	0.000000	0.000000	0.000000	0.000000	0.000000	4.198154	2.283864	-1.015318	16.723510	-3.422426	-0.078805	-3.908129	0.000000	0.000000	0.000000	0.000000	0.000000	0.000000	0.000000	0.000000	0.000000	0.000000	0.000000	0.000000	0.000000	0.000000	0.000000	0.000000	0.000000	0.000000	0.000000	0.000000	0.000000	0.000000	0.000000	0.000000	0.000000	0.000000	0.000000	0.000000	0.000000	0.000000	0.000000	0.000000	0.000000	0.000000	0.000000	0.000000	0.000000	0.000000	0.000000	0.000000	0.000000	0.000000	0.000000	0.000000	0.000000	0.000000	0.000000	0.000000	-64.320530	28.714110	-63.137470	137.754600	13.013230	14.002000	-38.808530	25.463460	25.430360	-14.115620	0.000000	0.000000	-129.637500	6.997154	-6.387901	131.869700	2.198840	-0.181691	-35.610010	11.004260	10.390490	0.000000	0.000000	0.000000
	-19.8031	33.0215	38.3333	56.590660	-47.320710	52.813980	0.000000	0.000000	0.000000	-1.853253	-4.809841	0.514161	-6.129564	-16.078730	1.120814	0.000000	0.000000	0.000000	0.000000	0.000000	0.000000	0.000000	0.000000	1.710677	-18.775600	-39.390730	-8.234727	-4.180407	7.359593	6.546416	0.000000	0.000000	0.000000	0.000000	0.000000	0.000000	0.000000	0.000000	0.000000	0.000000	0.000000	0.000000	0.000000	0.000000	0.000000	0.000000	0.000000	0.000000	0.000000	0.000000	0.000000	0.000000	0.000000	0.000000	0.000000	0.000000	0.000000	0.000000	0.000000	0.000000	0.000000	0.000000	0.000000	0.000000	0.000000	0.000000	0.000000	0.000000	0.000000	0.000000	0.000000	0.000000	0.000000	0.000000	0.000000	0.000000	0.000000	0.000000	0.000000	0.000000	4.268822	2.600211	-2.107424	17.100980	-4.008789	0.772306	-4.530962	0.000000	0.000000	0.000000	0.000000	0.000000	0.000000	0.000000	0.000000	0.000000	0.000000	0.000000	0.000000	0.000000	0.000000	0.000000	0.000000	0.000000	0.000000	0.000000	0.000000	0.000000	0.000000	0.000000	0.000000	0.000000	0.000000	0.000000	0.000000	0.000000	0.000000	0.000000	0.000000	0.000000	0.000000	0.000000	0.000000	0.000000	0.000000	0.000000	0.000000	0.000000	0.000000	0.000000	0.000000	0.000000	0.000000	0.000000	0.000000	-65.984580	30.034250	-62.364040	136.861200	12.410280	13.848940	-38.660560	25.823060	25.724790	-16.437500	0.000000	0.000000	-130.064000	6.466713	-5.859271	131.887800	1.844985	-0.575600	-36.128810	9.948321	9.482394	0.000000	0.000000	0.000000
	-19.5215	33.0323	38.2781	57.852010	-47.051380	54.229550	0.000000	0.000000	0.000000	-2.024429	-4.579090	0.394762	-6.745657	-15.297060	0.689137	0.000000	0.000000	0.000000	0.000000	0.000000	0.000000	0.000000	0.000000	1.772236	-18.478700	-39.823370	-8.038871	-4.044026	7.351938	6.338879	0.000000	0.000000	0.000000	0.000000	0.000000	0.000000	0.000000	0.000000	0.000000	0.000000	0.000000	0.000000	0.000000	0.000000	0.000000	0.000000	0.000000	0.000000	0.000000	0.000000	0.000000	0.000000	0.000000	0.000000	0.000000	0.000000	0.000000	0.000000	0.000000	0.000000	0.000000	0.000000	0.000000	0.000000	0.000000	0.000000	0.000000	0.000000	0.000000	0.000000	0.000000	0.000000	0.000000	0.000000	0.000000	0.000000	0.000000	0.000000	0.000000	0.000000	4.376613	2.930676	-3.244927	17.644770	-4.357965	1.484392	-4.864132	0.000000	0.000000	0.000000	0.000000	0.000000	0.000000	0.000000	0.000000	0.000000	0.000000	0.000000	0.000000	0.000000	0.000000	0.000000	0.000000	0.000000	0.000000	0.000000	0.000000	0.000000	0.000000	0.000000	0.000000	0.000000	0.000000	0.000000	0.000000	0.000000	0.000000	0.000000	0.000000	0.000000	0.000000	0.000000	0.000000	0.000000	0.000000	0.000000	0.000000	0.000000	0.000000	0.000000	0.000000	0.000000	0.000000	0.000000	0.000000	-68.083760	31.282850	-61.417790	136.126100	12.089410	13.869550	-38.267020	25.610660	25.344430	-19.561330	0.000000	0.000000	-130.889700	5.454550	-4.942137	131.894700	1.272474	-1.213199	-36.367390	8.177524	7.832264	0.000000	0.000000	0.000000
	-19.3163	33.0204	38.1545	58.943670	-46.763280	55.575320	0.000000	0.000000	0.000000	-2.218396	-4.323889	0.247534	-7.440877	-14.426820	0.167441	0.000000	0.000000	0.000000	0.000000	0.000000	0.000000	0.000000	0.000000	1.776702	-18.280100	-40.613400	-8.037289	-3.919182	8.047616	6.281824	0.000000	0.000000	0.000000	0.000000	0.000000	0.000000	0.000000	0.000000	0.000000	0.000000	0.000000	0.000000	0.000000	0.000000	0.000000	0.000000	0.000000	0.000000	0.000000	0.000000	0.000000	0.000000	0.000000	0.000000	0.000000	0.000000	0.000000	0.000000	0.000000	0.000000	0.000000	0.000000	0.000000	0.000000	0.000000	0.000000	0.000000	0.000000	0.000000	0.000000	0.000000	0.000000	0.000000	0.000000	0.000000	0.000000	0.000000	0.000000	0.000000	0.000000	4.537661	3.253978	-4.193215	18.400010	-5.132272	1.550547	-5.744328	0.000000	0.000000	0.000000	0.000000	0.000000	0.000000	0.000000	0.000000	0.000000	0.000000	0.000000	0.000000	0.000000	0.000000	0.000000	0.000000	0.000000	0.000000	0.000000	0.000000	0.000000	0.000000	0.000000	0.000000	0.000000	0.000000	0.000000	0.000000	0.000000	0.000000	0.000000	0.000000	0.000000	0.000000	0.000000	0.000000	0.000000	0.000000	0.000000	0.000000	0.000000	0.000000	0.000000	0.000000	0.000000	0.000000	0.000000	0.000000	-69.877130	32.150100	-60.602830	136.216000	12.114930	13.858260	-37.874140	25.011830	24.588840	-20.787890	0.000000	0.000000	-131.829500	4.343590	-3.932106	131.822500	0.597667	-1.968971	-36.234520	7.082790	6.761749	0.000000	0.000000	0.000000
